<svg width="133" height="22" viewBox="0 0 133 22" fill="none" xmlns="http://www.w3.org/2000/svg">
<path d="M108 11H132M132 11L129.5 7M132 11L129 14.5" stroke="white"/>
<path d="M25 11H1M1 11L3.5 7M1 11L4 14.5" stroke="white"/>
<path d="M53.308 15.884V17H47.206V15.884H49.762V8.18C49.666 8.324 49.498 8.48 49.258 8.648C49.03 8.816 48.772 8.972 48.484 9.116C48.208 9.26 47.92 9.38 47.62 9.476C47.32 9.572 47.056 9.62 46.828 9.62V8.432C47.104 8.432 47.404 8.354 47.728 8.198C48.064 8.042 48.376 7.862 48.664 7.658C48.964 7.454 49.216 7.262 49.42 7.082C49.624 6.902 49.738 6.782 49.762 6.722H51.022V15.884H53.308ZM73.243 4.22L64.747 17H63.361L71.857 4.22H73.243ZM89.0881 12.752C89.8801 12.884 90.5101 13.244 90.9781 13.832C91.4581 14.42 91.6981 15.146 91.6981 16.01C91.6981 16.55 91.5961 17.042 91.3921 17.486C91.2001 17.942 90.9181 18.326 90.5461 18.638C90.1861 18.962 89.7481 19.208 89.2321 19.376C88.7281 19.556 88.1641 19.646 87.5401 19.646C86.6281 19.646 85.8301 19.46 85.1461 19.088C84.4621 18.728 83.9461 18.224 83.5981 17.576L84.4441 16.802C84.6961 17.33 85.0801 17.75 85.5961 18.062C86.1121 18.374 86.7601 18.53 87.5401 18.53C88.4401 18.53 89.1481 18.308 89.6641 17.864C90.1801 17.432 90.4381 16.808 90.4381 15.992C90.4381 15.164 90.1681 14.51 89.6281 14.03C89.0881 13.55 88.3081 13.31 87.2881 13.31H86.8381V12.266H87.3241C88.2481 12.266 88.9561 12.056 89.4481 11.636C89.9401 11.204 90.1861 10.646 90.1861 9.962C90.1861 9.602 90.1201 9.284 89.9881 9.008C89.8561 8.732 89.6701 8.504 89.4301 8.324C89.2021 8.132 88.9261 7.988 88.6021 7.892C88.2901 7.796 87.9481 7.748 87.5761 7.748C86.8921 7.748 86.2861 7.904 85.7581 8.216C85.2421 8.516 84.8521 8.936 84.5881 9.476L83.7961 8.72C83.9401 8.408 84.1441 8.126 84.4081 7.874C84.6721 7.61 84.9721 7.388 85.3081 7.208C85.6441 7.028 86.0161 6.89 86.4241 6.794C86.8321 6.686 87.2521 6.632 87.6841 6.632C88.2361 6.632 88.7401 6.71 89.1961 6.866C89.6641 7.022 90.0661 7.244 90.4021 7.532C90.7381 7.808 90.9961 8.144 91.1761 8.54C91.3681 8.936 91.4641 9.374 91.4641 9.854C91.4641 10.214 91.4101 10.562 91.3021 10.898C91.1941 11.222 91.0381 11.516 90.8341 11.78C90.6301 12.032 90.3781 12.248 90.0781 12.428C89.7901 12.596 89.4601 12.704 89.0881 12.752Z" fill="white"/>
</svg>
